<mxfile host="app.diagrams.net" modified="2022-03-25T03:11:49.553Z" agent="5.0 (Macintosh; Intel Mac OS X 10_15_7) AppleWebKit/537.36 (KHTML, like Gecko) Chrome/99.0.4844.51 Safari/537.36" etag="wnBIRLpbCCYVkS9W3FT_" version="17.1.2" type="github">
  <diagram id="UaLcQzYG0wiujSeZrPJh" name="Page-1">
    <mxGraphModel dx="946" dy="466" grid="1" gridSize="10" guides="1" tooltips="1" connect="1" arrows="1" fold="1" page="1" pageScale="1" pageWidth="827" pageHeight="1169" math="0" shadow="0">
      <root>
        <mxCell id="0" />
        <mxCell id="1" parent="0" />
        <mxCell id="gnvq45gk5-UEqsGLzL2m-4" style="edgeStyle=orthogonalEdgeStyle;rounded=0;orthogonalLoop=1;jettySize=auto;html=1;exitX=0.5;exitY=1;exitDx=0;exitDy=0;entryX=0.5;entryY=0;entryDx=0;entryDy=0;" edge="1" parent="1" source="gnvq45gk5-UEqsGLzL2m-1" target="gnvq45gk5-UEqsGLzL2m-2">
          <mxGeometry relative="1" as="geometry" />
        </mxCell>
        <mxCell id="gnvq45gk5-UEqsGLzL2m-1" value="เทศบาล" style="rounded=0;whiteSpace=wrap;html=1;" vertex="1" parent="1">
          <mxGeometry x="354" y="300" width="120" height="60" as="geometry" />
        </mxCell>
        <mxCell id="gnvq45gk5-UEqsGLzL2m-5" style="edgeStyle=orthogonalEdgeStyle;rounded=0;orthogonalLoop=1;jettySize=auto;html=1;exitX=0.5;exitY=1;exitDx=0;exitDy=0;entryX=0.5;entryY=0;entryDx=0;entryDy=0;" edge="1" parent="1" source="gnvq45gk5-UEqsGLzL2m-2" target="gnvq45gk5-UEqsGLzL2m-3">
          <mxGeometry relative="1" as="geometry" />
        </mxCell>
        <mxCell id="gnvq45gk5-UEqsGLzL2m-2" value="เพิ่มข้อมูล&lt;br&gt;สถานที่ท่องเที่ยว" style="rounded=0;whiteSpace=wrap;html=1;" vertex="1" parent="1">
          <mxGeometry x="354" y="410" width="120" height="60" as="geometry" />
        </mxCell>
        <mxCell id="gnvq45gk5-UEqsGLzL2m-3" value="public data" style="rounded=0;whiteSpace=wrap;html=1;" vertex="1" parent="1">
          <mxGeometry x="354" y="525" width="120" height="60" as="geometry" />
        </mxCell>
        <mxCell id="gnvq45gk5-UEqsGLzL2m-9" style="edgeStyle=orthogonalEdgeStyle;rounded=0;orthogonalLoop=1;jettySize=auto;html=1;exitX=0.5;exitY=1;exitDx=0;exitDy=0;entryX=0.5;entryY=0;entryDx=0;entryDy=0;" edge="1" parent="1" source="gnvq45gk5-UEqsGLzL2m-6" target="gnvq45gk5-UEqsGLzL2m-7">
          <mxGeometry relative="1" as="geometry" />
        </mxCell>
        <mxCell id="gnvq45gk5-UEqsGLzL2m-6" value="นักท่องเที่ยว" style="rounded=0;whiteSpace=wrap;html=1;" vertex="1" parent="1">
          <mxGeometry x="110" y="290" width="120" height="60" as="geometry" />
        </mxCell>
        <mxCell id="gnvq45gk5-UEqsGLzL2m-10" style="edgeStyle=orthogonalEdgeStyle;rounded=0;orthogonalLoop=1;jettySize=auto;html=1;exitX=0.5;exitY=1;exitDx=0;exitDy=0;entryX=0.5;entryY=0;entryDx=0;entryDy=0;" edge="1" parent="1" source="gnvq45gk5-UEqsGLzL2m-7" target="gnvq45gk5-UEqsGLzL2m-8">
          <mxGeometry relative="1" as="geometry" />
        </mxCell>
        <mxCell id="gnvq45gk5-UEqsGLzL2m-7" value="scan barcode จากแหล่งท่องเที่ยว" style="rounded=0;whiteSpace=wrap;html=1;" vertex="1" parent="1">
          <mxGeometry x="110" y="410" width="120" height="60" as="geometry" />
        </mxCell>
        <mxCell id="gnvq45gk5-UEqsGLzL2m-8" value="เข้าถึงแหล่งข้อมูล public data" style="rounded=0;whiteSpace=wrap;html=1;" vertex="1" parent="1">
          <mxGeometry x="110" y="525" width="120" height="60" as="geometry" />
        </mxCell>
      </root>
    </mxGraphModel>
  </diagram>
</mxfile>
